<svg width="406" height="306" viewBox="0 0 406 306" fill="none" xmlns="http://www.w3.org/2000/svg">
<path d="M309.345 251.316H301.14V250.603H308.622V183.664H279.771V84.7124H253.287V83.9994H280.484V182.951H309.345V251.316Z" fill="#4E73DF"/>
<path d="M145.056 136.906H144.333V113.243H162.798V91.8837H163.511V113.966H145.056V136.906Z" fill="#4E73DF"/>
<path d="M234.573 236.467H139.61C133.658 236.467 128.833 241.293 128.833 247.245V266.165C128.833 272.117 133.658 276.943 139.61 276.943H234.573C240.526 276.943 245.351 272.117 245.351 266.165V247.245C245.351 241.293 240.526 236.467 234.573 236.467Z" fill="#4E73DF"/>
<path d="M234.573 188.324H139.61C133.658 188.324 128.833 193.15 128.833 199.102V218.022C128.833 223.975 133.658 228.8 139.61 228.8H234.573C240.526 228.8 245.351 223.975 245.351 218.022V199.102C245.351 193.15 240.526 188.324 234.573 188.324Z" fill="#4E73DF"/>
<path d="M234.573 236.467H139.61C133.658 236.467 128.833 241.293 128.833 247.245V266.165C128.833 272.117 133.658 276.943 139.61 276.943H234.573C240.526 276.943 245.351 272.117 245.351 266.165V247.245C245.351 241.293 240.526 236.467 234.573 236.467Z" fill="url(#paint0_linear)"/>
<path d="M234.573 188.324H139.61C133.658 188.324 128.833 193.15 128.833 199.102V218.022C128.833 223.975 133.658 228.8 139.61 228.8H234.573C240.526 228.8 245.351 223.975 245.351 218.022V199.102C245.351 193.15 240.526 188.324 234.573 188.324Z" fill="url(#paint1_linear)"/>
<path d="M246.054 236.467H151.091C145.138 236.467 140.313 241.293 140.313 247.245V266.165C140.313 272.117 145.138 276.943 151.091 276.943H246.054C252.006 276.943 256.831 272.117 256.831 266.165V247.245C256.831 241.293 252.006 236.467 246.054 236.467Z" fill="#4E73DF"/>
<path d="M256.831 199.102V218.012C256.835 219.431 256.559 220.837 256.018 222.149C255.476 223.461 254.681 224.653 253.678 225.657C252.674 226.66 251.482 227.455 250.17 227.997C248.858 228.538 247.452 228.814 246.033 228.81H151.101C149.684 228.81 148.281 228.531 146.972 227.988C145.663 227.445 144.474 226.649 143.473 225.646C142.472 224.643 141.678 223.453 141.138 222.143C140.597 220.833 140.321 219.429 140.323 218.012V199.102C140.323 196.244 141.459 193.502 143.48 191.481C145.501 189.46 148.243 188.324 151.101 188.324H246.033C247.45 188.322 248.854 188.598 250.164 189.139C251.474 189.679 252.664 190.473 253.667 191.474C254.67 192.475 255.466 193.664 256.009 194.973C256.552 196.282 256.831 197.685 256.831 199.102V199.102Z" fill="#4E73DF"/>
<path d="M256.831 202.274V218.012C256.83 219.666 256.449 221.297 255.718 222.78C254.987 224.263 253.926 225.559 252.615 226.568C252.533 223.22 252.347 213.899 252.615 209.766C252.731 208.286 253.168 206.849 253.896 205.555C254.625 204.261 255.626 203.141 256.831 202.274V202.274Z" fill="url(#paint2_linear)"/>
<path d="M234.573 136.906H139.61C133.658 136.906 128.833 141.731 128.833 147.684V166.604C128.833 172.556 133.658 177.381 139.61 177.381H234.573C240.526 177.381 245.351 172.556 245.351 166.604V147.684C245.351 141.731 240.526 136.906 234.573 136.906Z" fill="#4E73DF"/>
<path d="M234.573 136.906H139.61C133.658 136.906 128.833 141.731 128.833 147.684V166.604C128.833 172.556 133.658 177.381 139.61 177.381H234.573C240.526 177.381 245.351 172.556 245.351 166.604V147.684C245.351 141.731 240.526 136.906 234.573 136.906Z" fill="url(#paint3_linear)"/>
<path d="M246.054 136.906H151.091C145.138 136.906 140.313 141.731 140.313 147.684V166.604C140.313 172.556 145.138 177.381 151.091 177.381H246.054C252.006 177.381 256.831 172.556 256.831 166.604V147.684C256.831 141.731 252.006 136.906 246.054 136.906Z" fill="#4E73DF"/>
<path d="M225.47 164.589C225.045 164.778 224.696 165.106 224.48 165.519C224.265 165.931 224.194 166.405 224.281 166.862C224.385 167.782 224.819 168.65 224.963 169.559C225.387 172.215 223.176 174.788 220.582 175.459C217.182 176.327 213.7 174.612 210.683 172.824C210.307 172.628 209.959 172.381 209.649 172.091C209.168 171.45 208.875 170.688 208.802 169.89C208.476 168.391 208.293 166.866 208.254 165.333C208.254 161.83 209.794 158.482 209.877 154.999C209.903 152.602 209.266 150.244 208.037 148.186C206.808 146.127 205.035 144.448 202.912 143.333C201.152 142.557 199.339 141.904 197.487 141.38C195.865 140.816 194.289 140.125 192.775 139.314C191.825 138.818 190.781 138.115 190.709 137.051C192.303 136.336 194.052 136.038 195.793 136.183H225.759C226.135 136.147 226.514 136.215 226.854 136.379C227.197 136.64 227.45 137.001 227.578 137.412C229.582 142.217 229.345 147.539 229.758 152.633C229.92 155.122 230.381 157.582 231.132 159.959C231.556 161.251 232.941 163.721 232.073 165.074C230.44 167.596 227.309 164.093 225.47 164.589Z" fill="url(#paint4_linear)"/>
<path d="M253.266 78.3368C253.266 80.1166 252.916 81.8791 252.234 83.5233C251.553 85.1676 250.554 86.6615 249.295 87.9195C248.036 89.1776 246.541 90.1753 244.896 90.8555C243.252 91.5357 241.489 91.8851 239.709 91.8837H146.833C145.022 91.9337 143.219 91.6202 141.531 90.9616C139.843 90.3031 138.305 89.3128 137.006 88.0494C135.707 86.7861 134.675 85.2752 133.97 83.6061C133.265 81.9369 132.902 80.1434 132.902 78.3316C132.902 76.5197 133.265 74.7262 133.97 73.0571C134.675 71.388 135.707 69.8771 137.006 68.6137C138.305 67.3503 139.843 66.3601 141.531 65.7015C143.219 65.043 145.022 64.7294 146.833 64.7795H149.933C148.818 60.8085 148.637 56.6333 149.406 52.5809C150.174 48.5284 151.87 44.709 154.362 41.4219C156.853 38.1347 160.072 35.4692 163.766 33.6342C167.46 31.7991 171.528 30.8444 175.653 30.8449H183.558C188.45 30.8408 193.249 32.1825 197.43 34.7231C201.611 37.2637 205.013 40.9053 207.262 45.2495C209.52 44.0916 212.021 43.4893 214.558 43.4929H216.624C220.886 43.4929 224.973 45.1858 227.986 48.1992C231 51.2125 232.693 55.2996 232.693 59.5611V60.3568C232.693 61.8527 232.485 63.3413 232.073 64.7795H239.761C243.347 64.7958 246.78 66.2311 249.311 68.7715C251.841 71.3119 253.264 74.7509 253.266 78.3368V78.3368Z" fill="white"/>
<path d="M185.997 78.4401C186.485 77.6386 186.867 76.7772 187.133 75.8774C188.138 73.153 189.301 70.4894 190.616 67.9001C191.152 66.6515 191.948 65.5314 192.951 64.6141C194.821 63.0848 197.456 63.0435 199.874 63.0745C201.486 63.0745 203.325 63.2295 204.297 64.5108C204.816 65.362 205.078 66.3453 205.051 67.3421C205.57 75.6387 204.651 83.9625 202.333 91.9457C197.89 92.173 193.44 92.3694 188.983 92.5347C185.955 92.6587 179.91 94.1054 177.43 91.9354C171.096 86.4174 183.899 81.4367 185.997 78.4401Z" fill="url(#paint5_linear)"/>
<path d="M287.831 226.589C287.196 226.589 286.586 226.34 286.132 225.896C285.678 225.451 285.416 224.847 285.403 224.212V208.474C285.403 205.734 284.314 203.105 282.376 201.168C280.438 199.23 277.81 198.141 275.07 198.141C272.329 198.141 269.701 199.23 267.763 201.168C265.825 203.105 264.736 205.734 264.736 208.474V224.212C264.736 224.856 264.48 225.474 264.025 225.929C263.57 226.384 262.952 226.64 262.308 226.64C261.664 226.64 261.046 226.384 260.591 225.929C260.135 225.474 259.88 224.856 259.88 224.212V208.474C259.88 204.446 261.48 200.582 264.329 197.733C267.177 194.885 271.041 193.284 275.07 193.284C279.098 193.284 282.962 194.885 285.811 197.733C288.659 200.582 290.26 204.446 290.26 208.474V224.212C290.246 224.847 289.984 225.451 289.53 225.896C289.076 226.34 288.466 226.589 287.831 226.589Z" fill="white"/>
<path d="M290.26 208.474V224.212C290.257 224.631 290.145 225.042 289.935 225.404C289.724 225.767 289.423 226.068 289.061 226.279C288.69 226.503 288.265 226.621 287.831 226.62C287.191 226.62 286.576 226.367 286.121 225.916C285.667 225.465 285.408 224.852 285.403 224.212V208.474C285.403 205.947 284.477 203.506 282.799 201.615C281.122 199.725 278.809 198.514 276.299 198.213C275.891 198.168 275.48 198.144 275.07 198.141C272.329 198.141 269.701 199.23 267.763 201.168C265.825 203.105 264.736 205.734 264.736 208.474V224.212C264.732 224.631 264.619 225.041 264.409 225.403C264.199 225.765 263.899 226.067 263.538 226.279C263.163 226.503 262.734 226.621 262.298 226.62C261.654 226.617 261.038 226.36 260.584 225.905C260.129 225.451 259.872 224.834 259.869 224.191V208.474C259.875 204.446 261.478 200.584 264.328 197.736C267.178 194.888 271.041 193.287 275.07 193.284C275.48 193.284 275.891 193.305 276.299 193.346C280.1 193.655 283.646 195.382 286.233 198.185C288.819 200.988 290.256 204.661 290.26 208.474V208.474Z" fill="url(#paint6_linear)"/>
<path d="M290.26 208.474V224.212C290.383 224.422 290.449 224.662 290.451 224.906C290.452 225.15 290.389 225.39 290.268 225.601C290.147 225.813 289.972 225.989 289.761 226.112C289.55 226.234 289.31 226.299 289.066 226.299C288.822 226.299 288.582 226.234 288.371 226.112C288.16 225.989 287.985 225.813 287.864 225.601C287.743 225.39 287.68 225.15 287.681 224.906C287.683 224.662 287.749 224.422 287.873 224.212V208.474C287.873 205.734 286.784 203.105 284.846 201.168C282.908 199.23 280.28 198.141 277.539 198.141C277.125 198.144 276.711 198.168 276.299 198.213C275.891 198.168 275.48 198.144 275.07 198.141C272.329 198.141 269.701 199.23 267.763 201.168C265.825 203.105 264.736 205.734 264.736 208.474V224.212C264.858 224.422 264.922 224.661 264.922 224.904C264.922 225.148 264.859 225.386 264.737 225.597C264.616 225.808 264.441 225.983 264.23 226.104C264.02 226.226 263.781 226.29 263.538 226.29C263.294 226.29 263.056 226.226 262.845 226.104C262.635 225.983 262.46 225.808 262.338 225.597C262.217 225.386 262.153 225.148 262.153 224.904C262.153 224.661 262.217 224.422 262.339 224.212V208.474C262.172 206.541 262.409 204.595 263.035 202.759C263.66 200.922 264.661 199.236 265.972 197.806C267.284 196.377 268.878 195.236 270.654 194.455C272.43 193.674 274.349 193.271 276.289 193.271C278.229 193.271 280.148 193.674 281.924 194.455C283.7 195.236 285.294 196.377 286.606 197.806C287.917 199.236 288.918 200.922 289.543 202.759C290.168 204.595 290.405 206.541 290.239 208.474H290.26Z" fill="url(#paint7_linear)"/>
<path d="M291.799 224.15H256.873C251.714 224.15 247.531 228.332 247.531 233.491V268.418C247.531 273.577 251.714 277.759 256.873 277.759H291.799C296.958 277.759 301.141 273.577 301.141 268.418V233.491C301.141 228.332 296.958 224.15 291.799 224.15Z" fill="#4E73DF"/>
<path d="M291.799 224.16H256.862C251.709 224.16 247.531 228.338 247.531 233.491V268.428C247.531 273.581 251.709 277.759 256.862 277.759H291.799C296.953 277.759 301.13 273.581 301.13 268.428V233.491C301.13 228.338 296.953 224.16 291.799 224.16Z" fill="url(#paint8_linear)"/>
<path d="M291.81 224.16H266.162C261.009 224.16 256.831 228.338 256.831 233.491V268.428C256.831 273.581 261.009 277.759 266.162 277.759H291.81C296.963 277.759 301.14 273.581 301.14 268.428V233.491C301.14 228.338 296.963 224.16 291.81 224.16Z" fill="url(#paint9_linear)"/>
<path d="M278.934 249.208C278.159 248.962 277.497 248.446 277.069 247.754C276.64 247.062 276.473 246.24 276.598 245.436C276.723 244.632 277.131 243.899 277.749 243.369C278.367 242.84 279.154 242.549 279.968 242.549C280.781 242.549 281.568 242.84 282.186 243.369C282.804 243.899 283.212 244.632 283.337 245.436C283.462 246.24 283.295 247.062 282.867 247.754C282.438 248.446 281.776 248.962 281.001 249.208L283.657 257.64H276.537L278.934 249.208Z" fill="url(#paint10_linear)"/>
<path d="M158.572 162.16C161.1 162.16 163.15 160.111 163.15 157.583C163.15 155.055 161.1 153.005 158.572 153.005C156.044 153.005 153.994 155.055 153.994 157.583C153.994 160.111 156.044 162.16 158.572 162.16Z" fill="white"/>
<path d="M172.336 162.16C174.864 162.16 176.914 160.111 176.914 157.583C176.914 155.055 174.864 153.005 172.336 153.005C169.808 153.005 167.758 155.055 167.758 157.583C167.758 160.111 169.808 162.16 172.336 162.16Z" fill="white"/>
<path d="M186.11 162.16C188.638 162.16 190.688 160.111 190.688 157.583C190.688 155.055 188.638 153.005 186.11 153.005C183.582 153.005 181.533 155.055 181.533 157.583C181.533 160.111 183.582 162.16 186.11 162.16Z" fill="white"/>
<path d="M158.572 213.145C161.1 213.145 163.15 211.095 163.15 208.567C163.15 206.039 161.1 203.99 158.572 203.99C156.044 203.99 153.994 206.039 153.994 208.567C153.994 211.095 156.044 213.145 158.572 213.145Z" fill="white"/>
<path d="M172.336 213.145C174.864 213.145 176.914 211.095 176.914 208.567C176.914 206.039 174.864 203.99 172.336 203.99C169.808 203.99 167.758 206.039 167.758 208.567C167.758 211.095 169.808 213.145 172.336 213.145Z" fill="white"/>
<path d="M186.11 213.145C188.638 213.145 190.688 211.095 190.688 208.567C190.688 206.039 188.638 203.99 186.11 203.99C183.582 203.99 181.533 206.039 181.533 208.567C181.533 211.095 183.582 213.145 186.11 213.145Z" fill="white"/>
<path d="M158.572 264.129C161.1 264.129 163.15 262.08 163.15 259.552C163.15 257.024 161.1 254.974 158.572 254.974C156.044 254.974 153.994 257.024 153.994 259.552C153.994 262.08 156.044 264.129 158.572 264.129Z" fill="white"/>
<path d="M172.336 264.129C174.864 264.129 176.914 262.08 176.914 259.552C176.914 257.024 174.864 254.974 172.336 254.974C169.808 254.974 167.758 257.024 167.758 259.552C167.758 262.08 169.808 264.129 172.336 264.129Z" fill="white"/>
<path d="M186.11 264.129C188.638 264.129 190.688 262.08 190.688 259.552C190.688 257.024 188.638 254.974 186.11 254.974C183.582 254.974 181.533 257.024 181.533 259.552C181.533 262.08 183.582 264.129 186.11 264.129Z" fill="white"/>
<path d="M228.466 154.597C228.265 155.847 228.335 157.127 228.673 158.347C229.152 159.503 229.97 160.486 231.019 161.168C233.252 162.73 236.004 163.367 238.696 162.946C239.061 162.928 239.406 162.777 239.668 162.522C239.831 162.304 239.921 162.04 239.926 161.768C239.918 160.312 239.361 158.914 238.366 157.851C237.376 156.797 236.57 155.585 235.979 154.266C235.111 151.703 236.826 145.41 232.155 145.844C228.291 146.206 228.756 151.879 228.466 154.597Z" fill="#FFBBAB"/>
<path d="M211.509 119.701C215.061 119.828 218.602 120.173 222.111 120.734C228.311 121.685 232.279 124.32 233.809 130.541C235.214 136.224 236.619 141.98 236.599 147.839C236.745 149.221 236.349 150.607 235.493 151.703C234.057 153.15 231.453 152.612 230.037 151.166C228.621 149.719 228.043 147.642 227.464 145.689C226.493 142.372 225.263 134.509 221.75 133.63C215.798 132.142 209.68 135.893 203.852 133.63C201.771 132.902 199.789 131.916 197.952 130.696C196.114 129.458 194.695 127.693 193.881 125.632C193.512 124.535 193.307 123.39 193.271 122.233C193.199 121.282 193.22 120.327 193.333 119.381C193.519 118.285 193.705 118.409 194.811 118.42C196.681 118.42 198.541 118.564 200.401 118.74C204.101 119.05 207.8 119.598 211.509 119.701Z" fill="#282328"/>
<path d="M227.309 158.854C227.309 158.854 226.462 160.352 227.133 161.385C227.805 162.419 235.297 168.546 241.311 165.188C247.325 161.83 234.47 159.608 234.47 159.608L227.309 158.854Z" fill="#4E73DF"/>
<path d="M228.115 155.206C228.38 155.115 228.669 155.123 228.929 155.227C229.188 155.332 229.402 155.526 229.531 155.774C229.984 156.451 230.6 157.001 231.323 157.375C232.045 157.749 232.851 157.934 233.664 157.913C235.503 157.717 236.495 155.754 237.384 155.847C238.273 155.94 242.489 160.61 242.551 162.377C242.613 164.144 240.009 165.105 237.301 164.93C234.594 164.754 228.776 162.098 227.805 160.538C227.422 159.69 227.25 158.763 227.304 157.834C227.358 156.905 227.636 156.004 228.115 155.206V155.206Z" fill="white"/>
<path d="M215.374 160.982C214.967 162.185 214.826 163.461 214.961 164.723C215.24 165.941 215.885 167.045 216.81 167.885C218.755 169.798 221.368 170.88 224.095 170.902C224.46 170.943 224.826 170.851 225.129 170.644C225.325 170.454 225.458 170.209 225.511 169.941C225.741 168.5 225.42 167.024 224.612 165.808C223.807 164.608 223.21 163.28 222.845 161.881C222.401 159.215 225.129 153.284 220.448 152.943C216.531 152.674 216.066 158.368 215.374 160.982Z" fill="#FFBBAB"/>
<path d="M204.307 123.783C207.803 124.473 211.254 125.373 214.64 126.48C220.561 128.433 224.075 131.646 224.571 138.074C225.015 143.912 225.459 149.823 224.488 155.64C224.403 157.027 223.785 158.327 222.762 159.267C221.109 160.455 218.629 159.505 217.461 157.841C216.294 156.177 216.077 154.049 215.829 152.024C215.405 148.593 215.488 140.657 212.161 139.19C208.647 137.66 204.731 138.156 201.001 137.95C199.058 137.846 197.012 137.464 195.111 137.423C188.756 137.288 187.433 132.556 187.216 131.812C186.429 129.432 186.031 126.94 186.038 124.434C186.115 123.208 186.312 121.993 186.627 120.807C186.865 119.701 186.875 119.577 188.074 119.773C189.923 120.083 191.742 120.528 193.54 121.003C197.115 121.912 200.66 123.07 204.307 123.783Z" fill="#473F47"/>
<path d="M213.493 164.992C213.493 164.992 212.46 166.335 212.904 167.461C213.349 168.588 219.776 175.862 226.265 173.527C232.755 171.192 220.437 166.903 220.437 166.903L213.493 164.992Z" fill="#4E73DF"/>
<path d="M214.878 161.53C215.156 161.484 215.441 161.539 215.682 161.685C215.922 161.831 216.103 162.058 216.19 162.326C216.527 163.071 217.048 163.718 217.705 164.207C218.361 164.695 219.131 165.008 219.941 165.116C221.791 165.219 223.041 163.442 223.951 163.69C224.86 163.938 228.208 169.228 227.95 170.923C227.691 172.618 224.994 173.196 222.359 172.576C219.724 171.956 214.413 168.391 213.71 166.697C213.476 165.805 213.46 164.87 213.663 163.971C213.867 163.072 214.283 162.234 214.878 161.53V161.53Z" fill="white"/>
<path d="M227.071 116.766L211.044 122.615L222.411 129.652L238.614 120.507L227.071 116.766Z" fill="#4E73DF"/>
<path d="M227.071 116.766L211.044 122.615L222.411 129.652L238.614 120.507L227.071 116.766Z" fill="url(#paint11_linear)"/>
<path d="M210.321 124.237L222.773 132.866L243.584 124.237L251.572 108.148L227.505 115.382L222.411 129.652L211.044 122.615L210.321 124.237Z" fill="#4E73DF"/>
<path d="M212.967 106.619C211.727 107.363 210.425 107.652 209.371 106.898L209.112 106.681C207.438 105.038 207.17 101.514 207.242 98.9413C207.27 97.859 207.36 96.7792 207.511 95.707L213.834 88.019L217.1 102.723C215.94 104.235 214.544 105.55 212.967 106.619Z" fill="white"/>
<path d="M213.018 102.94C212.904 103.643 212.894 104.387 212.791 105.11C212.222 109.058 210.724 112.984 211.292 117.025C211.563 117.903 211.541 118.846 211.23 119.711C210.79 120.375 210.121 120.854 209.35 121.055C205.588 122.45 201.486 122.439 197.477 122.408C194.47 122.408 190.151 122.646 187.66 120.652C186.736 119.727 186.213 118.476 186.203 117.169C185.759 112.941 185.759 108.677 186.203 104.449L186.327 102.796C186.672 98.9861 187.154 95.1972 187.774 91.429C188.239 88.701 188.89 85.7664 190.988 83.9581C193.778 81.5504 198.655 80.4137 202.251 80.2794C203.42 80.2074 204.593 80.3084 205.733 80.5791C207.328 81.0827 208.827 81.8512 210.166 82.8524C211.778 83.9684 213.214 84.9191 213.814 86.7687C214.462 88.8901 214.81 91.0918 214.847 93.3097C214.874 95.4028 214.61 97.4894 214.062 99.5097C213.803 100.491 213.4 101.452 213.152 102.434C213.08 102.579 213.049 102.754 213.018 102.94Z" fill="white"/>
<path opacity="0.1" d="M193.623 122.946C192.424 123.111 189.944 121.675 189.086 121.385C188.58 121.22 188.136 120.889 187.64 120.683C185.118 119.649 185.893 112.261 185.924 110.246C186.028 104.924 185.78 99.365 186.493 94.1157C186.676 92.0793 187.211 90.09 188.074 88.236C188.509 87.311 189.143 86.4935 189.931 85.8415C190.719 85.1896 191.64 84.7194 192.631 84.4644C193.014 84.3451 193.425 84.3451 193.809 84.4644C195.338 85.105 195.286 87.7814 195.369 89.0937C195.396 90.4151 195.673 91.7195 196.185 92.9377C196.785 94.2293 197.746 94.7047 198.676 95.6657C200.856 97.7184 202.59 100.198 203.77 102.951C204.307 104.397 204.586 105.927 205.062 107.404C206.289 110.643 208.034 113.662 210.228 116.343C210.972 117.376 211.768 118.616 211.334 119.794C211.143 120.198 210.868 120.558 210.528 120.848C210.187 121.138 209.79 121.353 209.36 121.478C208.297 121.91 207.143 122.069 206.002 121.943C203.305 121.592 201.269 119.412 198.862 118.161C198.025 117.727 196.423 116.994 195.472 117.407C194.522 117.82 194.191 119.091 194.046 119.949C193.964 120.497 194.418 122.274 194.16 122.625C194.098 122.714 194.019 122.788 193.926 122.844C193.833 122.899 193.73 122.934 193.623 122.946Z" fill="#020202"/>
<path d="M208.482 77.8511C207.995 78.2441 207.381 78.4461 206.756 78.4194C206.23 78.4021 205.708 78.3329 205.196 78.2127H204.917C204.883 78.197 204.846 78.1889 204.808 78.1889C204.771 78.1889 204.734 78.197 204.7 78.2127C204.663 78.2373 204.632 78.2694 204.609 78.3068C204.586 78.3442 204.571 78.3861 204.565 78.4297C204.305 79.4464 204.132 80.4835 204.049 81.5297V81.5297V82.0981C204.06 82.2965 204.013 82.4938 203.914 82.6664C203.733 82.8576 203.485 82.9722 203.222 82.9867C202.747 83.0641 202.261 83.0641 201.786 82.9867C200.778 82.7396 199.848 82.246 199.078 81.5504C199.409 79.7923 199.575 78.0073 199.574 76.2184C199.574 73.9038 199.326 71.5581 199.905 69.3158C199.988 68.7847 200.183 68.2773 200.477 67.8278C200.772 67.3783 201.159 66.9969 201.613 66.7092C202.067 66.4215 202.578 66.2342 203.11 66.1598C203.642 66.0854 204.184 66.1256 204.7 66.2778C206.336 66.4861 207.879 67.1604 209.143 68.2204C209.327 68.4167 209.465 68.6506 209.549 68.9057C209.633 69.1609 209.66 69.4313 209.629 69.6981C209.629 70.6178 209.68 71.5374 209.629 72.4571C209.577 73.3768 209.494 74.5238 209.36 75.5571C209.346 76.4011 209.035 77.2132 208.482 77.8511V77.8511Z" fill="#FFBBAB"/>
<path d="M208.006 68.5924C206.828 68.5924 205.578 68.2308 204.421 68.5201C203.629 68.7895 202.961 69.3367 202.541 70.0605C202.121 70.7843 201.978 71.6357 202.137 72.4571C201.662 72.5501 201.703 71.7338 201.414 71.3618C201.124 70.9898 200.277 71.3618 200.143 71.8578C200.091 72.4184 200.179 72.9832 200.401 73.5008C200.667 74.5337 200.576 75.626 200.143 76.6007C200.039 76.8281 199.822 77.0864 199.595 76.9934C199.368 76.9004 199.244 76.4561 199.13 76.2494C198.938 75.957 198.728 75.6774 198.5 75.4124C198.035 74.8648 197.467 74.3791 197.022 73.8211C196.548 73.3804 196.181 72.8382 195.946 72.2351C195.712 71.632 195.617 70.9837 195.668 70.3388C195.772 69.8228 196.019 69.3464 196.381 68.9644C196.682 68.6267 197.052 68.3587 197.466 68.1791C197.632 68.0964 197.828 68.0138 197.89 67.8484C197.911 67.7461 197.911 67.6407 197.89 67.5384C197.868 66.8615 198.041 66.1925 198.39 65.6116C198.738 65.0306 199.246 64.5623 199.853 64.2628C201.076 63.6826 202.417 63.3993 203.77 63.4361C204.648 63.4361 205.526 63.4361 206.405 63.4361C207.123 63.5041 207.848 63.4411 208.544 63.2501C208.44 62.757 208.277 62.2783 208.058 61.8241C208.637 62.0932 209.176 62.4409 209.66 62.8575C209.677 62.5541 209.642 62.2501 209.556 61.9585C210.488 62.3422 211.296 62.9749 211.892 63.7875C212.177 64.3404 212.288 64.9662 212.213 65.5835C212.137 66.2009 211.878 66.7812 211.468 67.2491C211.065 67.6647 210.584 67.9957 210.051 68.2228C209.519 68.45 208.947 68.5686 208.368 68.5718L208.006 68.5924Z" fill="#FC682D"/>
<path d="M205.196 78.2128H204.917C204.883 78.197 204.846 78.1889 204.808 78.1889C204.771 78.1889 204.734 78.197 204.7 78.2128C204.663 78.2373 204.632 78.2694 204.609 78.3068C204.586 78.3442 204.571 78.3861 204.565 78.4298C204.305 79.4464 204.132 80.4836 204.049 81.5297V81.5297C203.178 81.1033 202.482 80.3885 202.079 79.5068C201.676 78.6252 201.591 77.6312 201.837 76.6938C202.893 77.3286 204.011 77.8515 205.175 78.2541L205.196 78.2128Z" fill="#E0A194"/>
<path d="M232.083 112.065C231.391 111.775 230.802 111.124 230.016 111.155C229.231 111.186 228.601 112.106 227.95 112.705C227.241 113.338 226.316 113.675 225.366 113.646C225.066 113.632 224.768 113.587 224.478 113.511C223.252 113.151 222.183 112.391 221.44 111.352C221.44 111.352 223.362 109.192 223.61 109.047C224.457 108.562 225.604 108.603 226.513 108.117C227.434 107.535 228.386 107.004 229.365 106.526C230.352 106.119 231.42 105.95 232.484 106.03C233.549 106.111 234.579 106.44 235.493 106.991C235.72 107.125 235.968 107.373 235.844 107.621C235.791 107.715 235.707 107.788 235.607 107.828V107.828C234.544 108.249 233.387 108.374 232.259 108.19C232.923 108.513 233.541 108.923 234.098 109.409C234.346 109.626 234.573 110.039 234.305 110.236C234.233 110.266 234.156 110.282 234.077 110.282C233.999 110.282 233.922 110.266 233.85 110.236L231.349 109.626C231.996 110.125 232.534 110.751 232.93 111.465C233.004 111.583 233.04 111.72 233.034 111.858C232.91 112.178 232.414 112.209 232.083 112.065Z" fill="#FFBBAB"/>
<path d="M232.083 112.065C231.391 111.775 230.802 111.124 230.016 111.155C229.231 111.186 228.601 112.106 227.95 112.705C227.241 113.338 226.316 113.675 225.366 113.646C225.126 113.535 224.897 113.4 224.684 113.243C224.524 113.141 224.404 112.988 224.343 112.809C224.327 112.645 224.369 112.481 224.462 112.345C224.554 112.209 224.692 112.11 224.85 112.065C225.189 111.983 225.535 111.932 225.883 111.91C226.432 111.811 226.922 111.508 227.257 111.062C227.536 110.69 227.712 110.215 228.115 110.029C228.381 109.908 228.67 109.844 228.962 109.843L230.099 109.771C230.273 109.773 230.446 109.738 230.605 109.667C230.684 109.63 230.748 109.569 230.791 109.493C230.834 109.417 230.852 109.33 230.843 109.244C230.843 109.047 230.605 108.944 230.419 108.872C230.047 108.737 228.797 108.665 229.603 108.221C230.187 107.972 230.809 107.825 231.442 107.787C232.71 107.663 233.987 107.663 235.255 107.787C235.391 107.802 235.526 107.826 235.658 107.859V107.859C234.596 108.28 233.439 108.405 232.31 108.221C232.975 108.544 233.593 108.954 234.15 109.44C234.398 109.657 234.625 110.07 234.356 110.267C234.285 110.297 234.207 110.313 234.129 110.313C234.051 110.313 233.974 110.297 233.902 110.267L231.401 109.657C232.048 110.156 232.586 110.782 232.982 111.496C233.056 111.614 233.092 111.751 233.085 111.889C232.91 112.178 232.414 112.209 232.083 112.065Z" fill="#E0A194"/>
<path d="M221.564 112.085C219.01 112.053 216.481 111.574 214.093 110.67C212.395 110.007 210.894 108.923 209.732 107.518C209.579 107.335 209.463 107.125 209.391 106.898C209.262 106.512 209.262 106.095 209.391 105.71C209.712 104.576 210.377 103.569 211.292 102.827C213.762 100.987 217.12 102.723 217.12 102.723C217.12 102.723 223.413 107.621 223.589 108.593C223.692 109.12 223.083 110.112 222.494 110.897C221.905 111.682 221.564 112.085 221.564 112.085Z" fill="white"/>
<path d="M191.893 84.4306L191.883 84.4326C188.798 85.0396 186.789 88.0329 187.396 91.1183L190.376 106.266C190.983 109.351 193.976 111.36 197.061 110.753L197.072 110.751C200.157 110.144 202.166 107.151 201.559 104.066L198.579 88.9181C197.972 85.8327 194.979 83.8236 191.893 84.4306Z" fill="white"/>
<path opacity="0.1" d="M221.564 112.085C219.01 112.053 216.481 111.574 214.093 110.67C213.793 110.556 212.253 109.636 212.026 109.729C211.932 109.801 211.866 109.903 211.84 110.019L211.003 112.406C210.753 112.241 210.545 112.02 210.398 111.759C210.251 111.499 210.168 111.206 210.156 110.907C210.094 110.308 210.156 109.709 210.094 109.12C209.899 108.206 209.59 107.321 209.174 106.485C208.048 103.612 208.254 100.409 208.471 97.3294L210.765 103.333C210.953 103.907 211.217 104.452 211.551 104.955C211.857 105.336 212.204 105.682 212.584 105.989C214.218 107.447 216.097 108.604 218.133 109.409C218.484 109.554 222.349 111.197 222.556 110.897C222.018 111.579 221.564 112.085 221.564 112.085Z" fill="#020202"/>
<path d="M222.711 124.702C222.091 124.155 221.677 123.266 220.882 123.059C220.086 122.853 219.27 123.617 218.495 124.093C218.056 124.312 217.575 124.434 217.084 124.45C216.594 124.466 216.105 124.376 215.653 124.186C215.352 124.072 215.065 123.927 214.795 123.752C213.63 122.928 212.741 121.772 212.243 120.435C212.243 120.435 214.609 118.74 214.888 118.668C215.839 118.43 216.955 118.843 217.988 118.668C219.03 118.345 220.089 118.083 221.161 117.882C222.287 117.797 223.418 117.98 224.46 118.417C225.502 118.853 226.425 119.53 227.154 120.393C227.35 120.621 227.536 120.972 227.371 121.189C227.301 121.272 227.201 121.324 227.092 121.334V121.334C225.912 121.426 224.73 121.183 223.682 120.631C224.281 121.199 224.806 121.842 225.242 122.543C225.449 122.853 225.583 123.369 225.242 123.493C225.098 123.493 224.932 123.493 224.788 123.359L222.432 121.881C222.974 122.636 223.373 123.483 223.61 124.382C223.656 124.526 223.656 124.682 223.61 124.826C223.506 125.095 223 125.012 222.711 124.702Z" fill="#FFBBAB"/>
<path d="M222.711 124.702C222.091 124.155 221.677 123.266 220.882 123.059C220.086 122.853 219.27 123.617 218.495 124.093C218.056 124.312 217.575 124.434 217.084 124.45C216.594 124.466 216.105 124.376 215.653 124.186C215.436 123.989 215.238 123.771 215.064 123.535C214.92 123.374 214.829 123.171 214.806 122.956C214.816 122.784 214.891 122.623 215.016 122.504C215.14 122.385 215.305 122.318 215.477 122.315C215.826 122.336 216.172 122.387 216.511 122.47C216.787 122.512 217.068 122.493 217.336 122.415C217.604 122.336 217.851 122.2 218.061 122.016C218.422 121.706 218.701 121.251 219.094 121.127C219.388 121.079 219.69 121.104 219.972 121.199L221.13 121.499C221.3 121.535 221.476 121.535 221.646 121.499C221.737 121.482 221.819 121.436 221.879 121.366C221.939 121.297 221.974 121.209 221.977 121.117C221.962 121.009 221.924 120.906 221.865 120.815C221.806 120.724 221.728 120.647 221.636 120.59C221.295 120.321 220.065 119.825 220.964 119.618C221.604 119.536 222.253 119.578 222.876 119.742C224.18 120.04 225.451 120.469 226.668 121.024C226.804 121.082 226.936 121.151 227.061 121.23V121.23C225.881 121.323 224.698 121.079 223.651 120.528C224.25 121.096 224.775 121.738 225.211 122.439C225.418 122.749 225.552 123.266 225.211 123.39C225.067 123.39 224.901 123.39 224.757 123.256L222.401 121.778C222.943 122.533 223.342 123.38 223.579 124.279C223.625 124.423 223.625 124.578 223.579 124.723C223.506 125.095 223 125.012 222.711 124.702Z" fill="#E0A194"/>
<path d="M205.475 107.446L216.159 116.942L212.625 123.359C212.625 123.359 192.3 113.842 191.267 109.244C190.233 104.645 195.606 104.821 195.606 104.821C195.606 104.821 200.05 101.37 205.475 107.446Z" fill="white"/>
<path d="M305.832 117.965H262.339V161.458H305.832V117.965Z" fill="#4E73DF"/>
<path opacity="0.18" d="M125.908 97.815H94.0198V141.308H125.908V97.815Z" fill="#4E73DF"/>
<path d="M118.138 104.862H86.2492V148.355H118.138V104.862Z" fill="white"/>
<path d="M70.9352 226.651C71.1702 228.868 71.9396 230.996 73.1776 232.851C78.1375 241.613 83.6969 250.242 91.3745 256.741C102.669 266.289 117.445 270.412 131.726 274.308C130.455 273.688 128.915 267.074 128.347 265.659C127.241 262.827 126.208 259.965 125.154 257.113C123.47 252.618 119.987 249.002 116.515 245.685C108.746 238.178 99.3034 232.625 88.9668 229.482C83.1197 227.693 77.0492 226.74 70.9352 226.651V226.651Z" fill="#4E73DF"/>
<path d="M70.9352 226.651C71.1702 228.868 71.9396 230.996 73.1776 232.851C78.1375 241.613 83.6969 250.242 91.3745 256.741C102.669 266.289 117.445 270.412 131.726 274.308C130.455 273.688 128.915 267.074 128.347 265.659C127.241 262.827 126.208 259.965 125.154 257.113C123.47 252.618 119.987 249.002 116.515 245.685C108.746 238.178 99.3034 232.625 88.9668 229.482C83.1197 227.693 77.0492 226.74 70.9352 226.651V226.651Z" fill="url(#paint12_linear)"/>
<path d="M126.807 231.559C125.64 223.406 124.441 215.15 121.165 207.596C117.89 200.042 112.206 193.129 104.488 190.308C104.26 201.978 104.036 213.644 103.816 225.307C103.682 232.045 103.568 238.916 105.5 245.375C108.9 256.741 120.669 269.978 132.005 273.719C133.689 268.283 130.868 260.048 130.062 254.396L126.807 231.559Z" fill="#4E73DF"/>
<path d="M245.341 206.718H209.515V210.407H245.341V206.718Z" fill="white"/>
<path d="M245.341 257.702H209.515V261.391H245.341V257.702Z" fill="white"/>
<path d="M272.9 132.442L283.853 126.717L294.362 132.411C294.362 132.411 292.409 146.475 284.111 150.505C284.091 150.505 273.799 146.568 272.9 132.442Z" fill="white"/>
<defs>
<linearGradient id="paint0_linear" x1="203.191" y1="258.188" x2="40.9067" y2="243.236" gradientUnits="userSpaceOnUse">
<stop offset="0.01"/>
<stop offset="0.13" stop-opacity="0.69"/>
<stop offset="0.25" stop-opacity="0.32"/>
<stop offset="1" stop-opacity="0"/>
</linearGradient>
<linearGradient id="paint1_linear" x1="25888.7" y1="8373.69" x2="-3292.21" y2="7666.31" gradientUnits="userSpaceOnUse">
<stop offset="0.01"/>
<stop offset="0.13" stop-opacity="0.69"/>
<stop offset="0.25" stop-opacity="0.32"/>
<stop offset="1" stop-opacity="0"/>
</linearGradient>
<linearGradient id="paint2_linear" x1="1212.75" y1="5159.14" x2="1555.17" y2="5177.96" gradientUnits="userSpaceOnUse">
<stop offset="0.01" stop-color="#3A55A4"/>
<stop offset="0.13" stop-opacity="0.69"/>
<stop offset="0.25" stop-opacity="0.32"/>
<stop offset="1" stop-opacity="0"/>
</linearGradient>
<linearGradient id="paint3_linear" x1="26357.1" y1="6508.97" x2="-841.52" y2="-1712.93" gradientUnits="userSpaceOnUse">
<stop offset="0.01"/>
<stop offset="0.13" stop-opacity="0.69"/>
<stop offset="0.25" stop-opacity="0.32"/>
<stop offset="1" stop-opacity="0"/>
</linearGradient>
<linearGradient id="paint4_linear" x1="9639.06" y1="5207" x2="7869.46" y2="7778.26" gradientUnits="userSpaceOnUse">
<stop offset="0.01"/>
<stop offset="0.13" stop-opacity="0.69"/>
<stop offset="0.25" stop-opacity="0.32"/>
<stop offset="1" stop-opacity="0"/>
</linearGradient>
<linearGradient id="paint5_linear" x1="8608.65" y1="2828.53" x2="2931.19" y2="2225.16" gradientUnits="userSpaceOnUse">
<stop offset="0.01"/>
<stop offset="0.13" stop-opacity="0.69"/>
<stop offset="0.25" stop-opacity="0.32"/>
<stop offset="1" stop-opacity="0"/>
</linearGradient>
<linearGradient id="paint6_linear" x1="8527.22" y1="8098.4" x2="8469.47" y2="6872.46" gradientUnits="userSpaceOnUse">
<stop offset="0.01"/>
<stop offset="0.13" stop-opacity="0.69"/>
<stop offset="0.25" stop-opacity="0.32"/>
<stop offset="1" stop-opacity="0"/>
</linearGradient>
<linearGradient id="paint7_linear" x1="7895.75" y1="8635.14" x2="8058.97" y2="6400.35" gradientUnits="userSpaceOnUse">
<stop offset="0.01"/>
<stop offset="0.13" stop-opacity="0.69"/>
<stop offset="0.25" stop-opacity="0.32"/>
<stop offset="1" stop-opacity="0"/>
</linearGradient>
<linearGradient id="paint8_linear" x1="8582.15" y1="11414" x2="24526.7" y2="16690.8" gradientUnits="userSpaceOnUse">
<stop offset="0.01" stop-color="#3B57A9"/>
<stop offset="0.13" stop-opacity="0.69"/>
<stop offset="0.25" stop-opacity="0.32"/>
<stop offset="1" stop-opacity="0"/>
</linearGradient>
<linearGradient id="paint9_linear" x1="7987.45" y1="11670.7" x2="19682.4" y2="14870.3" gradientUnits="userSpaceOnUse">
<stop offset="0.01" stop-color="#4E73DF"/>
<stop offset="0.13" stop-opacity="0.69"/>
<stop offset="0.25" stop-opacity="0.32"/>
<stop offset="1" stop-opacity="0"/>
</linearGradient>
<linearGradient id="paint10_linear" x1="2209.17" y1="3986.03" x2="2356.19" y2="3986.03" gradientUnits="userSpaceOnUse">
<stop offset="0.01"/>
<stop offset="0.13" stop-opacity="0.69"/>
<stop offset="0.25" stop-opacity="0.32"/>
<stop offset="1" stop-opacity="0"/>
</linearGradient>
<linearGradient id="paint11_linear" x1="6387.93" y1="1789.84" x2="5874.58" y2="792.974" gradientUnits="userSpaceOnUse">
<stop offset="0.01"/>
<stop offset="0.13" stop-opacity="0.69"/>
<stop offset="0.25" stop-opacity="0.32"/>
<stop offset="1" stop-opacity="0"/>
</linearGradient>
<linearGradient id="paint12_linear" x1="8116.6" y1="10871.4" x2="3991.04" y2="15353.9" gradientUnits="userSpaceOnUse">
<stop offset="0.01" stop-color="#3B56A7"/>
<stop offset="0.13" stop-opacity="0.69"/>
<stop offset="0.25" stop-opacity="0.32"/>
<stop offset="1" stop-opacity="0"/>
</linearGradient>
</defs>
</svg>
